<?xml version="1.0" encoding="UTF-8"?>
<svg id="Layer_6" data-name="Layer 6" xmlns="http://www.w3.org/2000/svg" version="1.1" viewBox="0 0 152 153.4">
  <defs>
    <style>
      .cls-1 {
        fill: #78c480;
      }

      .cls-1, .cls-2 {
        stroke-width: 0px;
      }

      .cls-2 {
        fill: #fff;
      }
    </style>
  </defs>
  <ellipse class="cls-2" cx="76" cy="76.7" rx="72.6" ry="72.6"/>
  <g>
    <path class="cls-1" d="M91.9,118.8c-7.2.6-12.9.3-19.2-1-1.6,6.8-3.6,12.2-10.7,22.9-1.2,2.8-1.9,4.8-2.4,6.7,5.3,1.2,10.8,1.9,16.4,1.9s11.2-.7,16.4-1.9l-.5-28.6Z"/>
    <path class="cls-1" d="M57.7,131.2c-3,4-5.4,8.6-7.6,13.4.9.3,1.8.7,2.7,1,.9-2.8,2.4-6.6,4.5-9.4l.4-5"/>
    <path class="cls-1" d="M103.7,143.8l-.4-26.9c-.7.6-1.4,1.1-2.1,1.7-.6,8.7-.9,17.7-1.3,26.6,1.3-.5,2.6-.9,3.8-1.5Z"/>
  </g>
  <path class="cls-1" d="M72.9,60.1c-.7,0-1.5.5-2.5,1.4-1,.9-2,2.3-2.9,4.1-.5.9-.9,1.7-1.2,2.4l-.3.6c.2.3.5.5.7.7.2.2.5.2.7.2,1.3,0,2.7-1.2,4.2-3.5.7-1,1.2-2.1,1.6-3.1.4-.9.5-1.6.5-2s0-.5-.2-.7c-.1-.1-.4-.2-.6-.2Z"/>
  <circle class="cls-1" cx="55.2" cy="59.7" r="2.6"/>
  <g id="ellipse883">
    <ellipse class="cls-1" cx="69.4" cy="92.1" rx="1.8" ry="1.3"/>
  </g>
  <g id="ellipse885">
    <ellipse class="cls-1" cx="63.4" cy="92.3" rx="2.5" ry="1.6"/>
  </g>
  <g id="ellipse887">
    <ellipse class="cls-1" cx="68.8" cy="96.9" rx="3.7" ry="1.7"/>
  </g>
  <g id="ellipse889">
    <ellipse class="cls-1" cx="60.3" cy="96.9" rx="2" ry="1.2"/>
  </g>
  <g id="ellipse891">
    <ellipse class="cls-1" cx="57.8" cy="93" rx="1.6" ry=".9"/>
  </g>
  <path class="cls-1" d="M76,4.1C35.9,4.1,3.4,36.6,3.4,76.7s16.7,53.5,40.8,65.3c2-8.8,3.5-18.1,3.4-29.5-3-8.7-1.9-14.8.7-19.8-9.6-1.3-11.5-6.6-10.3-13.3,3.6,4.1,8.5,6.4,13.9,8,10.8,1.3,22,1.1,33.5.1,3-.3,6.5-.6,9.3-2.7,1.8-1.4,3.3-3.9,4.6-6.6.7-4.4.1-9.1,0-13.7-2.2-2.2-3.6-5.3-4.6-8.7-.5-3-.7-6.2,0-9.6-8.3-.1-10.9-7-13.4-14.2,5.7.1,11.1,2,16,6.6,1.2.3,2.5.5,3.7.7,0-.2-.1-.3-.2-.5,0-.2-.1-.4-.2-.6-.1-.7-.1-1.3,0-2,.1-.5.3-.9.5-1.2.1-.2.3-.3.4-.4.3-.2.6-.4.9-.4.1,0,.3,0,.5.1.2.1.3.4.2.7,0,.3,0,.7,0,1,0,.3,0,.5.1.8.1.4.3.8.4,1.2,0,.2.2.4.3.5.2.3.5.5.7.8,0,0,.2.2.3.3,1.3,0,2.6,0,3.9-.1,0,0,.1,0,.2-.2.2-.3.5-.5.7-.8.1-.2.2-.3.3-.5.2-.4.3-.8.4-1.2,0-.3.1-.5.1-.8,0-.4,0-.7,0-1,0-.3,0-.6.2-.7.1-.1.3-.1.5-.1.3,0,.6.2.9.4.2.1.3.3.4.4.3.3.4.8.5,1.2.2.6.2,1.3,0,2,0,.2-.1.4-.2.6,0,0,0,.2,0,.2,1.2-.2,2.3-.4,3.5-.7h0c6.7-4.9,11.6-6.2,15.3-5.1-1.2,9.3-5.9,12.9-11.8,14.5.7,3.1,0,5.8-.3,8.4-1.4,4.7-2.9,8.7-4.9,10.3,1,11,1.7,21.9.8,32-.2,3.1-1.4,6.2-3.3,9.2-.5,9.3-.8,20.9-1.2,32.7,22.5-12.4,37.7-36.2,37.7-63.7,0-40.1-32.5-72.6-72.6-72.6ZM18.5,66.8s0,0,0,.1c0,0,0,0,0,0,0,0,0,0,0-.1ZM83.5,21.5l-15.1,11.7s0,0,0,0l2.2,4c.3-.1.5-.2.7-.3,1.7-.9,3.5,1.4,4.2,2.6,0,0,0,0,0,0,.9,1.7,1,3.4.1,3.8-2.4,1.1-6.8,3.2-7.7,4.3-1.2,1.6-2.1,10.4-3.7,11.3l-.7.4c-.7.4-1.2,1.1-1.4,1.9-.4,2-1.6,3.8-3.6,4.8-1.9,1-4.1,1.1-6,.3-.7-.3-1.6-.2-2.3.1h-.2c-1.7,1-9.5-3.1-11.5-3-1.4.1-5.6,2.7-7.8,4.1-.8.5-2.2-.5-3.1-2.2,0,0,0,0,0,0-.6-1.2-1.6-3.9.1-4.9.1,0,.4-.2.6-.4l-2.2-4-17.7,6.1c-.4.1-.8-.7-.4-.9l16.2-8.8c-.3-.8,0-1.8.9-2.2l.5-.3c.8-.4,1.8-.2,2.4.5,0,0,0,0,.1-.1l16.6-9c.4-.2.9.5.5.8l-15.1,11.7s-.1,0-.2,0l1.8,3.4c4.4-3.4,11.2-8.8,16.1-11.5,0,0,0,0,0,0,0,0,0,0,0,0,0,0,0,0,0,0,0,0,0,0,0,0,4.9-2.6,13.1-5.3,18.4-7.1l-1.8-3.4-17.8,6.1c-.4.1-.8-.7-.4-.9l16.4-8.8c-.3-.8,0-1.8.9-2.2l.5-.3c.8-.4,1.8-.2,2.4.5,0,0,0,0,0,0l16.6-9c.4-.2.9.5.5.8Z"/>
</svg>